<?xml version="1.0" encoding="utf-8"?>
<!DOCTYPE svg PUBLIC "-//W3C//DTD SVG 20010904//EN" "http://www.w3.org/TR/2001/REC-SVG-20010904/DTD/svg10.dtd">
<svg version="1.0" xmlns="http://www.w3.org/2000/svg" width="400pt" height="465pt" viewBox="0 0 400 465" preserveAspectRatio="xMidYMid meet">
<g fill="#000000FE">
<path d="M 42.50 372.03 L 1.50 348.24 L 1.50 232.05 L 1.50 115.86 L 22.00 104.07 C 33.28 97.58 58.70 82.93 78.50 71.50 C 98.30 60.07 120.35 47.35 127.50 43.23 C 134.65 39.11 153.69 28.12 169.80 18.81 L 199.11 1.87 L 203.80 4.57 C 206.39 6.05 212.55 9.64 217.50 12.54 C 227.47 18.38 310.25 66.13 364.25 97.19 L 399.00 117.17 L 399.00 201.09 L 399.00 285.00 L 382.00 285.00 C 372.65 285.00 364.76 284.89 364.47 284.75 C 364.19 284.61 363.97 251.60 363.99 211.38 C 364.02 153.68 363.76 138.05 362.76 137.23 C 362.07 136.66 352.95 131.26 342.50 125.24 C 307.03 104.80 226.56 58.35 213.27 50.66 C 206.00 46.45 199.61 43.00 199.08 43.00 C 198.55 43.00 182.68 51.92 163.81 62.83 C 144.94 73.74 114.43 91.36 96.00 101.98 C 77.57 112.60 56.31 124.86 48.74 129.22 L 34.99 137.16 L 35.24 232.15 L 35.50 327.15 L 59.75 341.16 L 84.00 355.18 L 84.00 375.59 C 84.00 386.82 83.89 395.96 83.75 395.91 C 83.61 395.86 65.05 385.12 42.50 372.03Z"/></g>
<g fill="#000000FE">
<path d="M 93.50 312.18 C 91.30 311.14 88.67 309.35 87.65 308.21 C 83.12 303.10 83.09 302.64 83.04 224.75 L 83.00 151.00 L 104.00 151.00 L 125.00 151.00 L 125.00 195.08 C 125.00 227.65 125.30 239.07 126.14 238.79 C 126.77 238.58 141.52 218.85 158.93 194.95 L 190.58 151.50 L 215.79 151.23 C 229.66 151.09 241.00 151.19 241.00 151.47 C 241.00 151.74 228.63 167.84 213.51 187.23 C 198.39 206.63 186.03 222.72 186.03 223.00 C 186.04 223.28 202.85 243.52 223.40 268.00 L 260.74 312.50 L 233.24 312.77 C 217.05 312.92 205.28 312.64 204.62 312.09 C 204.00 311.57 194.05 298.99 182.50 284.12 C 170.95 269.26 161.05 257.10 160.50 257.09 C 159.95 257.09 150.80 268.74 140.17 282.99 C 123.27 305.65 120.28 309.17 116.28 311.11 C 109.84 314.22 98.89 314.74 93.50 312.18Z"/></g>
<g fill="#6CA734FE">
<path d="M 161.75 441.78 L 125.00 420.59 L 125.00 399.26 L 125.00 377.93 L 127.25 379.13 C 128.49 379.79 144.94 389.25 163.82 400.16 C 182.70 411.07 198.61 420.00 199.17 420.00 C 199.74 420.00 208.60 415.11 218.85 409.14 C 229.11 403.16 253.93 388.82 274.00 377.27 C 294.07 365.72 315.00 353.66 320.50 350.49 C 326.00 347.31 336.35 341.34 343.50 337.22 C 350.65 333.10 357.96 328.86 359.75 327.78 L 363.00 325.84 L 363.00 347.31 L 363.00 368.77 L 354.25 373.77 C 349.44 376.52 338.52 382.80 330.00 387.73 C 291.15 410.17 227.25 447.05 214.99 454.10 C 207.56 458.38 200.81 462.12 199.99 462.42 C 199.13 462.74 182.88 453.96 161.75 441.78Z"/></g>
<g fill="#000000FE">
<path d="M 234.17 235.58 L 242.50 225.00 L 261.78 225.00 C 282.29 225.00 286.75 224.20 288.92 220.15 C 290.92 216.42 290.20 212.05 287.08 208.92 L 284.15 206.00 L 270.58 206.00 L 257.00 206.00 L 257.00 197.02 L 257.00 188.04 L 266.75 180.27 L 276.50 172.50 L 259.70 172.00 L 242.91 171.50 L 250.70 161.28 L 258.50 151.06 L 285.25 151.03 L 312.00 151.00 L 312.00 160.84 L 312.00 170.69 L 301.53 178.98 C 291.76 186.72 289.95 189.00 293.60 189.00 C 295.73 189.00 302.21 192.46 305.92 195.58 C 310.00 199.02 313.96 206.84 314.68 212.91 C 316.18 225.65 307.36 238.19 293.50 242.99 C 286.80 245.32 285.19 245.44 256.17 245.79 L 225.85 246.16 L 234.17 235.58Z"/></g>
</svg>
