<svg width="88" height="88" viewBox="0 0 88 88" fill="none" xmlns="http://www.w3.org/2000/svg">
<path d="M75.172 61.7042L44.0001 79.6994L29.8186 71.524V79.7908L44.0001 87.9891L75.172 69.9711V61.7042Z" fill="#51CE27"/>
<path d="M44 0L6 21.9459V65.8377L22.1911 75.2007V67.2993L12.8281 61.887V25.8966L44 7.87861L75.1719 25.8966V54.1454H82V21.9459L44 0Z" fill="white"/>
<path d="M41.5337 42.1791L52.244 28.4087H42.4243L30.0926 45.3763V28.4087H21.9171V56.0638C21.9171 57.0914 22.2368 57.9363 22.899 58.5758C23.5841 59.238 24.4976 59.6034 25.5709 59.6034C26.3702 59.6034 27.1466 59.4664 27.8774 59.2152C28.6995 58.9183 29.3846 58.3931 29.887 57.6623L36.6466 48.5962L45.119 59.4207H55.9435L41.5337 42.1791Z" fill="white"/>
<path d="M61.4699 35.4652L65.649 32.1539V28.4087H55.3269L52.1754 32.5193H58.7067L54.893 35.5337V39.0505H59.6887C60.6021 39.0734 61.3329 39.8041 61.3329 40.7176C61.3329 41.6311 60.6021 42.3847 59.6887 42.3847H57.5877L55.8293 42.4075H52.3125L49.024 46.6094H57.542C57.7476 46.6323 57.9531 46.6323 58.1586 46.6323C58.4098 46.6323 58.661 46.6323 58.9122 46.6094H58.9579C64.2103 46.3354 66.1057 43.3438 66.1057 40.7861C66.1057 38.1599 64.1875 36.0818 61.4699 35.4652Z" fill="white"/>
</svg>
